<?xml version="1.0" standalone="no"?>
<!DOCTYPE svg PUBLIC "-//W3C//DTD SVG 20010904//EN"
 "http://www.w3.org/TR/2001/REC-SVG-20010904/DTD/svg10.dtd">
<svg version="1.0" xmlns="http://www.w3.org/2000/svg"
 width="980.000000pt" height="980.000000pt" viewBox="0 0 980.000000 980.000000"
 preserveAspectRatio="xMidYMid meet">
<metadata>
Created by potrace 1.15, written by Peter Selinger 2001-2017
</metadata>
<g transform="translate(0.000000,980.000000) scale(0.100000,-0.100000)"
fill="#000000" stroke="none">
<path d="M1090 9795 c-8 -2 -49 -9 -90 -15 -359 -58 -702 -314 -868 -645 -51
-103 -85 -199 -108 -305 -18 -82 -19 -215 -19 -3930 0 -3715 1 -3848 19 -3930
106 -487 482 -854 971 -951 59 -12 677 -14 3910 -14 3710 0 3843 1 3925 19
230 50 423 152 589 310 188 181 311 405 362 661 21 105 21 7705 0 7810 -51
256 -174 480 -362 661 -161 153 -339 250 -569 307 l-85 21 -3830 2 c-2106 1
-3837 0 -3845 -1z m7650 -847 c107 -53 184 -138 221 -245 18 -53 19 -89 19
-738 0 -761 2 -734 -71 -844 -45 -67 -113 -122 -192 -155 -51 -21 -63 -21
-721 -24 -460 -2 -686 1 -722 8 -118 25 -232 109 -283 208 -50 98 -51 112 -51
798 0 391 4 662 10 695 28 147 137 268 285 315 31 10 195 12 745 11 l705 -2
55 -27z m-3639 -1998 c505 -51 942 -263 1289 -626 307 -322 491 -711 551
-1168 15 -117 6 -473 -14 -581 -83 -437 -271 -800 -572 -1100 -301 -301 -662
-489 -1100 -572 -127 -24 -474 -29 -615 -9 -440 64 -821 247 -1134 546 -314
301 -523 684 -600 1101 -189 1024 417 2023 1411 2328 250 77 533 106 784 81z
m-2935 -1247 c-109 -366 -139 -826 -80 -1218 169 -1132 1015 -2064 2124 -2340
275 -68 477 -90 780 -82 435 11 787 97 1175 287 310 152 561 334 802 584 430
444 698 997 778 1601 45 342 22 753 -60 1063 -14 52 -25 100 -25 108 0 12 99
14 660 14 l660 0 0 -2268 c0 -2451 3 -2319 -51 -2424 -32 -63 -115 -145 -178
-175 l-56 -28 -3750 -3 c-3395 -2 -3755 -1 -3804 14 -136 39 -261 162 -303
296 -17 57 -18 150 -18 2324 l0 2264 676 0 c638 0 675 -1 670 -17z"/>
</g>
</svg>
