<?xml version="1.0" standalone="no"?>
<!DOCTYPE svg PUBLIC "-//W3C//DTD SVG 20010904//EN"
 "http://www.w3.org/TR/2001/REC-SVG-20010904/DTD/svg10.dtd">
<svg version="1.0" xmlns="http://www.w3.org/2000/svg"
 width="994.000000pt" height="781.000000pt" viewBox="0 0 994.000000 781.000000"
 preserveAspectRatio="xMidYMid meet">
<metadata>
Created by potrace 1.15, written by Peter Selinger 2001-2017
</metadata>
<g transform="translate(0.000000,781.000000) scale(0.100000,-0.100000)"
fill="#000000" stroke="none">
<path d="M707 7784 c-388 -70 -644 -396 -688 -874 -20 -226 23 -419 143 -640
129 -236 398 -556 628 -747 87 -72 336 -247 1455 -1023 763 -529 1259 -876
1527 -1068 642 -460 913 -595 1198 -596 304 -2 550 121 1260 629 140 100 824
577 1520 1060 696 483 1299 903 1340 934 387 290 709 728 804 1091 105 405 39
722 -201 970 -125 131 -236 200 -406 253 l-72 22 -4215 2 c-3594 1 -4226 -1
-4293 -13z"/>
<path d="M10 3077 c0 -1445 4 -2242 10 -2297 25 -209 110 -379 262 -527 130
-126 273 -203 443 -237 73 -15 462 -16 4290 -14 4018 3 4213 4 4270 21 316 95
573 365 635 668 19 91 20 154 20 2348 l0 2254 -148 -144 c-180 -176 -295 -263
-842 -634 -1009 -685 -1977 -1359 -2475 -1725 -281 -206 -433 -304 -608 -392
-373 -187 -622 -261 -882 -261 -278 -1 -520 71 -912 269 -165 83 -308 178
-703 464 -629 456 -1228 873 -2448 1705 -507 346 -614 427 -786 597 -66 65
-121 118 -123 118 -2 0 -3 -996 -3 -2213z"/>
</g>
</svg>
