<?xml version="1.0" standalone="no"?>
<!DOCTYPE svg PUBLIC "-//W3C//DTD SVG 20010904//EN"
 "http://www.w3.org/TR/2001/REC-SVG-20010904/DTD/svg10.dtd">
<svg version="1.0" xmlns="http://www.w3.org/2000/svg"
 width="764.000000pt" height="980.000000pt" viewBox="0 0 764.000000 980.000000"
 preserveAspectRatio="xMidYMid meet">
<metadata>
Created by potrace 1.15, written by Peter Selinger 2001-2017
</metadata>
<g transform="translate(0.000000,980.000000) scale(0.100000,-0.100000)"
fill="#000000" stroke="none">
<path d="M3635 9794 c-422 -28 -755 -90 -1095 -206 -570 -194 -1066 -498
-1489 -912 -313 -307 -519 -589 -701 -961 -175 -356 -272 -684 -322 -1095 -17
-141 -17 -699 0 -840 54 -440 162 -757 345 -1017 71 -101 223 -257 315 -323
172 -125 379 -222 590 -279 l114 -30 53 113 c30 62 66 153 81 202 24 79 28
106 28 234 1 207 -19 263 -198 568 -191 324 -223 428 -245 782 -37 599 137
1167 514 1675 565 761 1541 1238 2460 1201 514 -20 958 -174 1355 -469 143
-106 363 -331 443 -453 308 -465 439 -1170 361 -1932 -120 -1169 -678 -2102
-1392 -2326 -296 -93 -653 -70 -917 59 -261 127 -384 345 -385 680 0 253 67
559 250 1135 164 518 219 720 262 955 18 96 22 157 22 305 0 172 -2 191 -27
273 -33 107 -51 144 -112 224 -109 146 -330 257 -565 285 -467 55 -871 -278
-1082 -892 -169 -493 -148 -1094 52 -1479 l40 -77 -40 -181 c-52 -240 -145
-606 -280 -1113 -240 -897 -340 -1346 -414 -1846 -80 -537 -104 -1125 -66
-1599 13 -165 41 -416 49 -437 14 -39 345 273 492 462 426 550 697 1274 954
2551 l58 287 55 -35 c30 -20 170 -113 311 -207 266 -179 403 -254 556 -305
401 -133 987 -112 1463 54 269 94 497 219 752 415 127 98 384 358 494 500 450
580 725 1290 827 2131 20 158 23 234 23 539 0 384 -10 516 -60 800 -201 1120
-1006 1981 -2219 2373 -292 95 -591 156 -940 193 -134 14 -645 26 -770 18z"/>
</g>
</svg>
