<?xml version="1.0" standalone="no"?>
<!DOCTYPE svg PUBLIC "-//W3C//DTD SVG 20010904//EN"
 "http://www.w3.org/TR/2001/REC-SVG-20010904/DTD/svg10.dtd">
<svg version="1.0" xmlns="http://www.w3.org/2000/svg"
 width="620.000000pt" height="620.000000pt" viewBox="0 0 620.000000 620.000000"
 preserveAspectRatio="xMidYMid meet">
<metadata>
Created by potrace 1.15, written by Peter Selinger 2001-2017
</metadata>
<g transform="translate(0.000000,620.000000) scale(0.100000,-0.100000)"
fill="#000000" stroke="none">
<path d="M2355 5469 c-276 -11 -585 -27 -740 -39 -71 -6 -272 -19 -445 -30
-406 -25 -482 -43 -644 -147 -247 -159 -373 -392 -416 -766 -22 -201 -64 -633
-82 -862 -16 -208 -16 -842 0 -1050 18 -229 60 -661 82 -862 43 -374 169 -607
416 -766 162 -104 238 -122 644 -147 173 -11 374 -24 445 -30 421 -33 784 -44
1485 -44 701 0 1064 11 1485 44 72 6 272 19 445 30 406 25 482 43 644 147 178
115 293 271 366 498 27 86 36 144 65 420 113 1067 113 1403 0 2470 -29 276
-38 334 -65 420 -73 227 -188 383 -366 498 -162 104 -238 122 -644 147 -173
11 -373 24 -445 30 -573 44 -1620 63 -2230 39z m150 -1360 c110 -67 470 -283
800 -481 673 -404 730 -440 745 -467 17 -32 12 -106 -9 -132 -10 -13 -52 -45
-92 -70 -87 -54 -478 -290 -613 -369 -51 -30 -124 -74 -162 -98 -85 -53 -491
-297 -617 -371 -51 -30 -123 -74 -161 -99 -97 -63 -133 -71 -193 -41 -26 13
-56 37 -67 52 -21 28 -21 38 -24 1030 -2 551 0 1021 3 1045 11 78 86 138 160
126 16 -2 120 -59 230 -125z"/>
</g>
</svg>
